<svg xmlns="http://www.w3.org/2000/svg" viewBox="0 0 428.82 258.29"><defs><style>.cls-1,.cls-3{fill:#263e80;}.cls-2{fill:#1d9ad4;}.cls-3{font-size:60px;}.cls-3,.cls-4{font-family:MyriadPro-Regular, Myriad Pro;}.cls-4{font-size:18px;}.cls-5{letter-spacing:-0.01em;}.cls-6{letter-spacing:0em;}.cls-7{letter-spacing:0em;}.cls-8{letter-spacing:0.01em;}.cls-9{letter-spacing:0em;}.cls-10{letter-spacing:-0.01em;}.cls-11{letter-spacing:0.01em;}</style></defs><g id="Calque_2" data-name="Calque 2"><g id="Calque_1-2" data-name="Calque 1"><path class="cls-1" d="M246.57,179.56c-6.43-1.83-10.42-.34-14.85,5.2-4.08,5.1-8.25,10.12-12.47,15.28-.61-.69-.91-.93-.88-1,4.23-10.1.23-18.35-6.15-25.82-4.77-5.58-10-10.79-15-16.17,8.19-6.34,8.59-12.92,1.09-20.48-2.53-2.55-5.81-4.34-8.38-6.85-3.2-3.14-6.69-6.29-8.85-10.11-3.12-5.54-.79-10.07,5.51-11.36,3.94-.8,5.81-2.29,5-6.39a1.77,1.77,0,0,1,.07-1.19c5.1-7.18-.11-14.75.78-22.14.54-4.42-2.66-7.89-7-9.16a42.87,42.87,0,0,0-9.8-2.1c-13.34-.61-18.24,6.77-21.1,19.59a92.22,92.22,0,0,0-1.74,12.63c-.39,4.81-.54,9.64-.55,14.46a10.77,10.77,0,0,1-3.46,8.18q-10.69,10.58-21,21.59a37.32,37.32,0,0,0-5.4,7.94c-2.89,5.44-1.71,9,4,11.67,8.26,3.83,16.66,7.37,25,11,2.06.89,4.2,1.59,7.32,2.76-1.89,3.77-3.53,7.93-5.94,11.58-3.18,4.83-8.39,8.37-9.13,14.74,0,.39-.69.86-1.14,1-7.59,2.78-15.2,5.52-22.29,8.08,0-12,.42-23.13.07-34.27-.4-12.58-.52-25.28-2.46-37.66-2.28-14.54-8.14-27.55-23-34.09a113.51,113.51,0,0,1-11-5.86A13,13,0,0,1,77,88.29C77.29,77.85,67.69,68.47,57.28,69a26.17,26.17,0,0,0-16.32,7,6.5,6.5,0,0,0-2.13,3.28c-1.15,5.92-2.12,11.87-3,17.83a3.07,3.07,0,0,0,1.32,2.58c3,1.23,4.13,3.49,4.62,6.5.45,2.72,2.4,4.16,5.12,4.25a18.28,18.28,0,0,1,13.37,6.32,11.85,11.85,0,0,1,2.68,7.2c.05,8.85,0,17.73-.84,26.53-.87,9.66-2.17,14.47-13.92,17.23-4,.93-8.64,1.83-11.48,4.4a42.1,42.1,0,0,1-12.62,8.43c-1.25.5-1.92,2.45-3.14,4.13a42,42,0,0,1-3.78-4.43c-4.3-6.62-9.73-12.88-12.36-20.13A88.11,88.11,0,0,1,.13,134.18,128.34,128.34,0,0,1,97.05,4c72.07-18.41,145.11,28.81,158,102.13a127.72,127.72,0,0,1-6.55,68.74C247.93,176.46,247.22,178,246.57,179.56Z"/><path class="cls-2" d="M1.71,150c2.94,5.63,5.49,11.25,8.67,16.48,13.28,21.8,31.93,36.43,56.8,43.33,12.07,3.34,24.25,3.74,36.36,2.8,14.86-1.16,29-6,42.63-12.09,9.83-4.42,19.7-8.79,29.74-12.68a10.94,10.94,0,0,1,8.13.62c4.57,2.47,2.77,8.74-.71,11.56-5.92,4.8-12.32,9-18.52,13.46-4.27,3.08-8.67,6-12.79,9.27a8.29,8.29,0,0,0-3.08,9.17,55.25,55.25,0,0,0,25.8-3.54A115.74,115.74,0,0,0,210,206.15a184.8,184.8,0,0,0,22.42-24,21.58,21.58,0,0,1,8.57-6c3.92-1.65,7.26,1.3,6.73,5.6a17.27,17.27,0,0,1-2,6.05C223.23,229,188.85,253.36,142,257.71,73.85,264,14.36,218.26,1.62,151.07A6,6,0,0,1,1.71,150Z"/><text class="cls-3" transform="translate(277.96 128.55)">CNSS</text><text class="cls-4" transform="translate(283.96 168.35)"><tspan class="cls-5">C</tspan><tspan x="10.31" y="0">aisse N</tspan><tspan class="cls-6" x="62.13" y="0">a</tspan><tspan class="cls-7" x="70.74" y="0">tionale </tspan><tspan x="0" y="21.6">de </tspan><tspan class="cls-8" x="22.99" y="21.6">S</tspan><tspan x="31.97" y="21.6">écu</tspan><tspan class="cls-9" x="58.97" y="21.6">r</tspan><tspan x="64.92" y="21.6">i</tspan><tspan class="cls-10" x="69.14" y="21.6">t</tspan><tspan x="74.99" y="21.6">é </tspan><tspan class="cls-11" x="87.82" y="21.6">S</tspan><tspan x="96.8" y="21.6">ociale</tspan></text><rect class="cls-1" x="283.96" y="140.05" width="124.86" height="3.36"/></g></g></svg>